<svg width="23" height="24" viewBox="0 0 23 24" fill="none" xmlns="http://www.w3.org/2000/svg">
<path d="M14.9341 22.6027V2.39734C14.9341 1.84505 14.4864 1.39734 13.9341 1.39734H8.86616C8.31388 1.39734 7.86616 1.84505 7.86616 2.39734V22.6027M14.9341 22.6027L14.9322 10.3962C14.9321 9.84382 15.3799 9.39601 15.9322 9.39601H21C21.5523 9.39601 22 9.84372 22 10.396V21.6027C22 22.155 21.5523 22.6027 21 22.6027H14.9341ZM14.9341 22.6027H7.86616M7.86616 22.6027V16.6027C7.86616 16.0504 7.41845 15.6027 6.86616 15.6027H2C1.44772 15.6027 1 16.0504 1 16.6027V21.6027C1 22.155 1.44771 22.6027 2 22.6027H7.86616Z" stroke="#FAFAFA" stroke-width="1.7" stroke-linecap="round" stroke-linejoin="round"/>
</svg>
