<svg width="23" height="24" viewBox="0 0 23 24" fill="none" xmlns="http://www.w3.org/2000/svg">
<path d="M10.3 1.59998C10.3 1.13053 9.91944 0.749976 9.45 0.749976C8.98056 0.749976 8.6 1.13053 8.6 1.59998H10.3ZM8.6 22.4C8.6 22.8694 8.98056 23.25 9.45 23.25C9.91944 23.25 10.3 22.8694 10.3 22.4H8.6ZM4.9 2.44998H17.9V0.749976H4.9V2.44998ZM20.95 5.49998V18.5H22.65V5.49998H20.95ZM17.9 21.55H4.9V23.25H17.9V21.55ZM1.85 18.5V5.49998H0.15V18.5H1.85ZM4.9 21.55C3.21553 21.55 1.85 20.1844 1.85 18.5H0.15C0.15 21.1233 2.27665 23.25 4.9 23.25V21.55ZM20.95 18.5C20.95 20.1844 19.5845 21.55 17.9 21.55V23.25C20.5233 23.25 22.65 21.1233 22.65 18.5H20.95ZM17.9 2.44998C19.5845 2.44998 20.95 3.81551 20.95 5.49998H22.65C22.65 2.87662 20.5233 0.749976 17.9 0.749976V2.44998ZM4.9 0.749976C2.27665 0.749976 0.15 2.87662 0.15 5.49998H1.85C1.85 3.81551 3.21553 2.44998 4.9 2.44998V0.749976ZM8.6 1.59998V22.4H10.3V1.59998H8.6ZM9.45 12.85H21.15V11.15H9.45V12.85Z" fill="#FAFAFA"/>
</svg>
