<svg width="258" height="71" viewBox="0 0 258 71" fill="none" xmlns="http://www.w3.org/2000/svg">
<path d="M20.3717 48.4634V45.3063C20.3717 44.8877 20.6905 44.4862 21.2579 44.1901C21.8253 43.8941 22.5949 43.7278 23.3974 43.7278H47.6027C48.4052 43.7278 49.1747 43.8941 49.7422 44.1901C50.3096 44.4862 50.6284 44.8877 50.6284 45.3063V48.4634" stroke="#BBB2FF" stroke-width="2.2" stroke-linecap="round" stroke-linejoin="round"/>
<path d="M35.3378 36.4091V49.2086" stroke="#BBB2FF" stroke-width="2.2" stroke-linecap="round" stroke-linejoin="round"/>
<path d="M38.5945 49.3243H32.4056C31.836 49.3243 31.3741 49.758 31.3741 50.293V56.1049C31.3741 56.6399 31.836 57.0736 32.4056 57.0736H38.5945C39.1642 57.0736 39.626 56.6399 39.626 56.1049V50.293C39.626 49.758 39.1642 49.3243 38.5945 49.3243Z" stroke="#BBB2FF" stroke-width="2.2" stroke-linecap="round" stroke-linejoin="round"/>
<path d="M23.4661 49.3243H17.2773C16.7076 49.3243 16.2458 49.758 16.2458 50.293V56.1049C16.2458 56.6399 16.7076 57.0736 17.2773 57.0736H23.4661C24.0358 57.0736 24.4976 56.6399 24.4976 56.1049V50.293C24.4976 49.758 24.0358 49.3243 23.4661 49.3243Z" stroke="#BBB2FF" stroke-width="2.2" stroke-linecap="round" stroke-linejoin="round"/>
<path d="M53.7228 49.3243H47.5339C46.9642 49.3243 46.5024 49.758 46.5024 50.293V56.1049C46.5024 56.6399 46.9642 57.0736 47.5339 57.0736H53.7228C54.2924 57.0736 54.7543 56.6399 54.7543 56.1049V50.293C54.7543 49.758 54.2924 49.3243 53.7228 49.3243Z" stroke="#BBB2FF" stroke-width="2.2" stroke-linecap="round" stroke-linejoin="round"/>
<path d="M50.4277 18.7072L43.538 25.1069L35.5 14.4407L27.462 25.1069L20.5723 18.7072V32.5733C20.5723 33.422 20.9353 34.2359 21.5813 34.836C22.2273 35.4361 23.1035 35.7732 24.0172 35.7732H46.9829C47.8965 35.7732 48.7727 35.4361 49.4187 34.836C50.0648 34.2359 50.4277 33.422 50.4277 32.5733V18.7072Z" stroke="#BBB2FF" stroke-width="2.2" stroke-linecap="round" stroke-linejoin="round"/>
<path d="M90.32 46V27.61H83.12V25H100.49V27.61H93.29V46H90.32ZM108.507 46.18C106.907 46.18 105.487 45.83 104.247 45.13C103.007 44.43 102.027 43.47 101.307 42.25C100.587 41.01 100.227 39.61 100.227 38.05C100.227 36.47 100.587 35.07 101.307 33.85C102.027 32.63 103.007 31.68 104.247 31C105.487 30.3 106.907 29.95 108.507 29.95C110.087 29.95 111.497 30.3 112.737 31C113.997 31.68 114.977 32.63 115.677 33.85C116.397 35.05 116.757 36.45 116.757 38.05C116.757 39.63 116.397 41.03 115.677 42.25C114.977 43.47 113.997 44.43 112.737 45.13C111.497 45.83 110.087 46.18 108.507 46.18ZM108.507 43.66C109.527 43.66 110.437 43.43 111.237 42.97C112.057 42.51 112.697 41.86 113.157 41.02C113.617 40.16 113.847 39.17 113.847 38.05C113.847 36.91 113.617 35.93 113.157 35.11C112.697 34.27 112.057 33.62 111.237 33.16C110.437 32.7 109.527 32.47 108.507 32.47C107.487 32.47 106.577 32.7 105.777 33.16C104.977 33.62 104.337 34.27 103.857 35.11C103.377 35.93 103.137 36.91 103.137 38.05C103.137 39.17 103.377 40.16 103.857 41.02C104.337 41.86 104.977 42.51 105.777 42.97C106.577 43.43 107.487 43.66 108.507 43.66ZM127.43 46.18C126.07 46.18 124.87 45.93 123.83 45.43C122.81 44.93 122.01 44.17 121.43 43.15C120.87 42.11 120.59 40.81 120.59 39.25V30.1H123.47V38.92C123.47 40.48 123.84 41.65 124.58 42.43C125.34 43.21 126.4 43.6 127.76 43.6C128.76 43.6 129.63 43.4 130.37 43C131.11 42.58 131.68 41.98 132.08 41.2C132.48 40.4 132.68 39.44 132.68 38.32V30.1H135.56V46H132.83V41.71L133.28 42.85C132.76 43.91 131.98 44.73 130.94 45.31C129.9 45.89 128.73 46.18 127.43 46.18ZM141.043 46V30.1H143.803V34.42L143.533 33.34C143.973 32.24 144.713 31.4 145.753 30.82C146.793 30.24 148.073 29.95 149.593 29.95V32.74C149.473 32.72 149.353 32.71 149.233 32.71C149.133 32.71 149.033 32.71 148.933 32.71C147.393 32.71 146.173 33.17 145.273 34.09C144.373 35.01 143.923 36.34 143.923 38.08V46H141.043ZM161.632 29.95C162.932 29.95 164.072 30.2 165.052 30.7C166.052 31.2 166.832 31.96 167.392 32.98C167.952 34 168.232 35.29 168.232 36.85V46H165.352V37.18C165.352 35.64 164.972 34.48 164.212 33.7C163.472 32.92 162.422 32.53 161.062 32.53C160.042 32.53 159.152 32.73 158.392 33.13C157.632 33.53 157.042 34.12 156.622 34.9C156.222 35.68 156.022 36.65 156.022 37.81V46H153.142V30.1H155.902V34.39L155.452 33.25C155.972 32.21 156.772 31.4 157.852 30.82C158.932 30.24 160.192 29.95 161.632 29.95ZM180.642 46.18C178.942 46.18 177.442 45.83 176.142 45.13C174.862 44.43 173.862 43.47 173.142 42.25C172.442 41.03 172.092 39.63 172.092 38.05C172.092 36.47 172.432 35.07 173.112 33.85C173.812 32.63 174.762 31.68 175.962 31C177.182 30.3 178.552 29.95 180.072 29.95C181.612 29.95 182.972 30.29 184.152 30.97C185.332 31.65 186.252 32.61 186.912 33.85C187.592 35.07 187.932 36.5 187.932 38.14C187.932 38.26 187.922 38.4 187.902 38.56C187.902 38.72 187.892 38.87 187.872 39.01H174.342V36.94H186.372L185.202 37.66C185.222 36.64 185.012 35.73 184.572 34.93C184.132 34.13 183.522 33.51 182.742 33.07C181.982 32.61 181.092 32.38 180.072 32.38C179.072 32.38 178.182 32.61 177.402 33.07C176.622 33.51 176.012 34.14 175.572 34.96C175.132 35.76 174.912 36.68 174.912 37.72V38.2C174.912 39.26 175.152 40.21 175.632 41.05C176.132 41.87 176.822 42.51 177.702 42.97C178.582 43.43 179.592 43.66 180.732 43.66C181.672 43.66 182.522 43.5 183.282 43.18C184.062 42.86 184.742 42.38 185.322 41.74L186.912 43.6C186.192 44.44 185.292 45.08 184.212 45.52C183.152 45.96 181.962 46.18 180.642 46.18ZM192.328 52C191.568 52 190.828 51.87 190.108 51.61C189.388 51.37 188.768 51.01 188.248 50.53L189.478 48.37C189.878 48.75 190.318 49.04 190.798 49.24C191.278 49.44 191.788 49.54 192.328 49.54C193.028 49.54 193.608 49.36 194.068 49C194.528 48.64 194.958 48 195.358 47.08L196.348 44.89L196.648 44.53L202.888 30.1H205.708L197.998 47.59C197.538 48.71 197.018 49.59 196.438 50.23C195.878 50.87 195.258 51.32 194.578 51.58C193.898 51.86 193.148 52 192.328 52ZM196.108 46.51L188.848 30.1H191.848L198.028 44.26L196.108 46.51ZM208.816 46V25H217.006C218.846 25 220.416 25.29 221.716 25.87C223.016 26.45 224.016 27.29 224.716 28.39C225.416 29.49 225.766 30.8 225.766 32.32C225.766 33.84 225.416 35.15 224.716 36.25C224.016 37.33 223.016 38.17 221.716 38.77C220.416 39.35 218.846 39.64 217.006 39.64H210.466L211.816 38.23V46H208.816ZM211.816 38.53L210.466 37.03H216.916C218.836 37.03 220.286 36.62 221.266 35.8C222.266 34.98 222.766 33.82 222.766 32.32C222.766 30.82 222.266 29.66 221.266 28.84C220.286 28.02 218.836 27.61 216.916 27.61H210.466L211.816 26.11V38.53ZM229.46 46V30.1H232.22V34.42L231.95 33.34C232.39 32.24 233.13 31.4 234.17 30.82C235.21 30.24 236.49 29.95 238.01 29.95V32.74C237.89 32.72 237.77 32.71 237.65 32.71C237.55 32.71 237.45 32.71 237.35 32.71C235.81 32.71 234.59 33.17 233.69 34.09C232.79 35.01 232.34 36.34 232.34 38.08V46H229.46ZM248.224 46.18C246.624 46.18 245.204 45.83 243.964 45.13C242.724 44.43 241.744 43.47 241.024 42.25C240.304 41.01 239.944 39.61 239.944 38.05C239.944 36.47 240.304 35.07 241.024 33.85C241.744 32.63 242.724 31.68 243.964 31C245.204 30.3 246.624 29.95 248.224 29.95C249.804 29.95 251.214 30.3 252.454 31C253.714 31.68 254.694 32.63 255.394 33.85C256.114 35.05 256.474 36.45 256.474 38.05C256.474 39.63 256.114 41.03 255.394 42.25C254.694 43.47 253.714 44.43 252.454 45.13C251.214 45.83 249.804 46.18 248.224 46.18ZM248.224 43.66C249.244 43.66 250.154 43.43 250.954 42.97C251.774 42.51 252.414 41.86 252.874 41.02C253.334 40.16 253.564 39.17 253.564 38.05C253.564 36.91 253.334 35.93 252.874 35.11C252.414 34.27 251.774 33.62 250.954 33.16C250.154 32.7 249.244 32.47 248.224 32.47C247.204 32.47 246.294 32.7 245.494 33.16C244.694 33.62 244.054 34.27 243.574 35.11C243.094 35.93 242.854 36.91 242.854 38.05C242.854 39.17 243.094 40.16 243.574 41.02C244.054 41.86 244.694 42.51 245.494 42.97C246.294 43.43 247.204 43.66 248.224 43.66Z" fill="#BBB2FF"/>
</svg>
