<svg width="73" height="73" viewBox="0 0 73 73" fill="none" xmlns="http://www.w3.org/2000/svg">
<path d="M18.0479 52.6199V48.6962C18.0479 48.1759 18.4441 47.6769 19.1493 47.309C19.8545 46.9411 20.8109 46.7344 21.8082 46.7344H51.8907C52.888 46.7344 53.8445 46.9411 54.5497 47.309C55.2549 47.6769 55.651 48.1759 55.651 48.6962V52.6199" stroke="#BBB2FF" stroke-width="3" stroke-linecap="round" stroke-linejoin="round"/>
<path d="M36.6478 37.6387V53.546" stroke="#BBB2FF" stroke-width="3" stroke-linecap="round" stroke-linejoin="round"/>
<path d="M40.6954 53.6899H33.0038C32.2959 53.6899 31.7219 54.2289 31.7219 54.8938V62.1169C31.7219 62.7817 32.2959 63.3207 33.0038 63.3207H40.6954C41.4034 63.3207 41.9773 62.7817 41.9773 62.1169V54.8938C41.9773 54.2289 41.4034 53.6899 40.6954 53.6899Z" stroke="#BBB2FF" stroke-width="3" stroke-linecap="round" stroke-linejoin="round"/>
<path d="M21.8938 53.6899H14.2023C13.4943 53.6899 12.9203 54.2289 12.9203 54.8938V62.1169C12.9203 62.7817 13.4943 63.3207 14.2023 63.3207H21.8938C22.6018 63.3207 23.1757 62.7817 23.1757 62.1169V54.8938C23.1757 54.2289 22.6018 53.6899 21.8938 53.6899Z" stroke="#BBB2FF" stroke-width="3" stroke-linecap="round" stroke-linejoin="round"/>
<path d="M59.497 53.6899H51.8055C51.0975 53.6899 50.5236 54.2289 50.5236 54.8938V62.1169C50.5236 62.7817 51.0975 63.3207 51.8055 63.3207H59.497C60.205 63.3207 60.779 62.7817 60.779 62.1169V54.8938C60.779 54.2289 60.205 53.6899 59.497 53.6899Z" stroke="#BBB2FF" stroke-width="3" stroke-linecap="round" stroke-linejoin="round"/>
<path d="M55.4019 15.6387L46.8393 23.5924L36.8497 10.3363L26.86 23.5924L18.2975 15.6387V32.8716C18.2975 33.9264 18.7485 34.9379 19.5514 35.6837C20.3543 36.4295 21.4433 36.8485 22.5788 36.8485H51.1206C52.2561 36.8485 53.345 36.4295 54.1479 35.6837C54.9508 34.9379 55.4019 33.9264 55.4019 32.8716V15.6387Z" stroke="#BBB2FF" stroke-width="3" stroke-linecap="round" stroke-linejoin="round"/>
</svg>
