<svg width="281" height="284" viewBox="0 0 281 284" fill="none" xmlns="http://www.w3.org/2000/svg">
<path d="M4.3902 76L10.0962 63.4H11.8782L17.6022 76H15.7122L10.6182 64.408H11.3382L6.2442 76H4.3902ZM6.8202 72.85L7.3062 71.41H14.3982L14.9202 72.85H6.8202Z" fill="#D6D6EE"/>
<path d="M6.07848 137V124.4H11.7305C13.1825 124.4 14.2985 124.694 15.0785 125.282C15.8585 125.858 16.2485 126.65 16.2485 127.658C16.2485 128.342 16.0925 128.918 15.7805 129.386C15.4805 129.854 15.0725 130.214 14.5565 130.466C14.0405 130.718 13.4825 130.844 12.8825 130.844L13.2065 130.304C13.9265 130.304 14.5625 130.43 15.1145 130.682C15.6665 130.934 16.1045 131.306 16.4285 131.798C16.7525 132.278 16.9145 132.878 16.9145 133.598C16.9145 134.678 16.5065 135.518 15.6905 136.118C14.8865 136.706 13.6865 137 12.0905 137H6.07848ZM7.87848 135.542H12.0185C13.0145 135.542 13.7765 135.374 14.3045 135.038C14.8325 134.702 15.0965 134.174 15.0965 133.454C15.0965 132.722 14.8325 132.188 14.3045 131.852C13.7765 131.516 13.0145 131.348 12.0185 131.348H7.71648V129.89H11.5685C12.4805 129.89 13.1885 129.722 13.6925 129.386C14.1965 129.05 14.4485 128.546 14.4485 127.874C14.4485 127.202 14.1965 126.698 13.6925 126.362C13.1885 126.026 12.4805 125.858 11.5685 125.858H7.87848V135.542Z" fill="#D6D6EE"/>
<path d="M12.0201 198.144C11.0601 198.144 10.1721 197.988 9.35609 197.676C8.55209 197.352 7.85009 196.902 7.25009 196.326C6.66209 195.738 6.20009 195.054 5.86409 194.274C5.52809 193.494 5.36009 192.636 5.36009 191.7C5.36009 190.764 5.52809 189.906 5.86409 189.126C6.20009 188.346 6.66809 187.668 7.26809 187.092C7.86809 186.504 8.57009 186.054 9.37409 185.742C10.1901 185.418 11.0781 185.256 12.0381 185.256C13.0101 185.256 13.9041 185.424 14.7201 185.76C15.5481 186.084 16.2501 186.57 16.8261 187.218L15.6561 188.352C15.1761 187.848 14.6361 187.476 14.0361 187.236C13.4361 186.984 12.7941 186.858 12.1101 186.858C11.4021 186.858 10.7421 186.978 10.1301 187.218C9.53009 187.458 9.00809 187.794 8.56409 188.226C8.12009 188.658 7.77209 189.174 7.52009 189.774C7.28009 190.362 7.16009 191.004 7.16009 191.7C7.16009 192.396 7.28009 193.044 7.52009 193.644C7.77209 194.232 8.12009 194.742 8.56409 195.174C9.00809 195.606 9.53009 195.942 10.1301 196.182C10.7421 196.422 11.4021 196.542 12.1101 196.542C12.7941 196.542 13.4361 196.422 14.0361 196.182C14.6361 195.93 15.1761 195.546 15.6561 195.03L16.8261 196.164C16.2501 196.812 15.5481 197.304 14.7201 197.64C13.9041 197.976 13.0041 198.144 12.0201 198.144Z" fill="#D6D6EE"/>
<path d="M5.45445 259V246.4H10.7645C12.1085 246.4 13.2905 246.664 14.3105 247.192C15.3425 247.72 16.1405 248.458 16.7045 249.406C17.2805 250.354 17.5685 251.452 17.5685 252.7C17.5685 253.948 17.2805 255.046 16.7045 255.994C16.1405 256.942 15.3425 257.68 14.3105 258.208C13.2905 258.736 12.1085 259 10.7645 259H5.45445ZM7.25445 257.434H10.6565C11.7005 257.434 12.6005 257.236 13.3565 256.84C14.1245 256.444 14.7185 255.892 15.1385 255.184C15.5585 254.464 15.7685 253.636 15.7685 252.7C15.7685 251.752 15.5585 250.924 15.1385 250.216C14.7185 249.508 14.1245 248.956 13.3565 248.56C12.6005 248.164 11.7005 247.966 10.6565 247.966H7.25445V257.434Z" fill="#D6D6EE"/>
<path d="M59.3902 17L65.0962 4.4H66.8782L72.6022 17H70.7122L65.6182 5.408H66.3382L61.2442 17H59.3902ZM61.8202 13.85L62.3062 12.41H69.3982L69.9202 13.85H61.8202Z" fill="#D6D6EE"/>
<path d="M122.078 17V4.4H127.73C129.182 4.4 130.298 4.694 131.078 5.282C131.858 5.858 132.248 6.65 132.248 7.658C132.248 8.342 132.092 8.918 131.78 9.386C131.48 9.854 131.072 10.214 130.556 10.466C130.04 10.718 129.482 10.844 128.882 10.844L129.206 10.304C129.926 10.304 130.562 10.43 131.114 10.682C131.666 10.934 132.104 11.306 132.428 11.798C132.752 12.278 132.914 12.878 132.914 13.598C132.914 14.678 132.506 15.518 131.69 16.118C130.886 16.706 129.686 17 128.09 17H122.078ZM123.878 15.542H128.018C129.014 15.542 129.776 15.374 130.304 15.038C130.832 14.702 131.096 14.174 131.096 13.454C131.096 12.722 130.832 12.188 130.304 11.852C129.776 11.516 129.014 11.348 128.018 11.348H123.716V9.89H127.568C128.48 9.89 129.188 9.722 129.692 9.386C130.196 9.05 130.448 8.546 130.448 7.874C130.448 7.202 130.196 6.698 129.692 6.362C129.188 6.026 128.48 5.858 127.568 5.858H123.878V15.542Z" fill="#D6D6EE"/>
<path d="M189.02 17.144C188.06 17.144 187.172 16.988 186.356 16.676C185.552 16.352 184.85 15.902 184.25 15.326C183.662 14.738 183.2 14.054 182.864 13.274C182.528 12.494 182.36 11.636 182.36 10.7C182.36 9.764 182.528 8.906 182.864 8.126C183.2 7.346 183.668 6.668 184.268 6.092C184.868 5.504 185.57 5.054 186.374 4.742C187.19 4.418 188.078 4.256 189.038 4.256C190.01 4.256 190.904 4.424 191.72 4.76C192.548 5.084 193.25 5.57 193.826 6.218L192.656 7.352C192.176 6.848 191.636 6.476 191.036 6.236C190.436 5.984 189.794 5.858 189.11 5.858C188.402 5.858 187.742 5.978 187.13 6.218C186.53 6.458 186.008 6.794 185.564 7.226C185.12 7.658 184.772 8.174 184.52 8.774C184.28 9.362 184.16 10.004 184.16 10.7C184.16 11.396 184.28 12.044 184.52 12.644C184.772 13.232 185.12 13.742 185.564 14.174C186.008 14.606 186.53 14.942 187.13 15.182C187.742 15.422 188.402 15.542 189.11 15.542C189.794 15.542 190.436 15.422 191.036 15.182C191.636 14.93 192.176 14.546 192.656 14.03L193.826 15.164C193.25 15.812 192.548 16.304 191.72 16.64C190.904 16.976 190.004 17.144 189.02 17.144Z" fill="#D6D6EE"/>
<path d="M243.454 17V4.4H248.764C250.108 4.4 251.29 4.664 252.31 5.192C253.342 5.72 254.14 6.458 254.704 7.406C255.28 8.354 255.568 9.452 255.568 10.7C255.568 11.948 255.28 13.046 254.704 13.994C254.14 14.942 253.342 15.68 252.31 16.208C251.29 16.736 250.108 17 248.764 17H243.454ZM245.254 15.434H248.656C249.7 15.434 250.6 15.236 251.356 14.84C252.124 14.444 252.718 13.892 253.138 13.184C253.558 12.464 253.768 11.636 253.768 10.7C253.768 9.752 253.558 8.924 253.138 8.216C252.718 7.508 252.124 6.956 251.356 6.56C250.6 6.164 249.7 5.966 248.656 5.966H245.254V15.434Z" fill="#D6D6EE"/>
<path d="M34.75 44C34.75 38.8914 38.8914 34.75 44 34.75H95.75V95.75H34.75V44Z" fill="#BBB2FF" stroke="#D6D6EE" stroke-width="1.5"/>
<path d="M96.25 34.75H157.25V95.75H96.25V34.75Z" fill="#1E1E1E" stroke="#D6D6EE" stroke-width="1.5"/>
<path d="M157.75 34.75H218.75V95.75H157.75V34.75Z" fill="#1E1E1E" stroke="#D6D6EE" stroke-width="1.5"/>
<path d="M219.25 34.75H271C276.109 34.75 280.25 38.8914 280.25 44V95.75H219.25V34.75Z" fill="#1E1E1E" stroke="#D6D6EE" stroke-width="1.5"/>
<path d="M34.75 97.25H95.75V158.25H34.75V97.25Z" fill="#1E1E1E" stroke="#D6D6EE" stroke-width="1.5"/>
<path d="M96.25 97.25H157.25V158.25H96.25V97.25Z" fill="#BBB2FF" stroke="#D6D6EE" stroke-width="1.5"/>
<path d="M157.75 97.25H218.75V158.25H157.75V97.25Z" fill="#1E1E1E" stroke="#D6D6EE" stroke-width="1.5"/>
<path d="M219.25 97.25H280.25V158.25H219.25V97.25Z" fill="#1E1E1E" stroke="#D6D6EE" stroke-width="1.5"/>
<path d="M34.75 159.75H95.75V220.75H34.75V159.75Z" fill="#1E1E1E" stroke="#D6D6EE" stroke-width="1.5"/>
<path d="M96.25 159.75H157.25V220.75H96.25V159.75Z" fill="#1E1E1E" stroke="#D6D6EE" stroke-width="1.5"/>
<path d="M157.75 159.75H218.75V220.75H157.75V159.75Z" fill="#BBB2FF" stroke="#D6D6EE" stroke-width="1.5"/>
<path d="M219.25 159.75H280.25V220.75H219.25V159.75Z" fill="#1E1E1E" stroke="#D6D6EE" stroke-width="1.5"/>
<path d="M34.75 222.25H95.75V283.25H44C38.8914 283.25 34.75 279.109 34.75 274V222.25Z" fill="#1E1E1E" stroke="#D6D6EE" stroke-width="1.5"/>
<path d="M96.25 222.25H157.25V283.25H96.25V222.25Z" fill="#1E1E1E" stroke="#D6D6EE" stroke-width="1.5"/>
<path d="M157.75 222.25H218.75V283.25H157.75V222.25Z" fill="#1E1E1E" stroke="#D6D6EE" stroke-width="1.5"/>
<path d="M219.25 222.25H280.25V274C280.25 279.109 276.109 283.25 271 283.25H219.25V222.25Z" fill="#BBB2FF" stroke="#D6D6EE" stroke-width="1.5"/>
</svg>
