<svg width="18" height="18" viewBox="0 0 18 18" fill="none" xmlns="http://www.w3.org/2000/svg">
<path d="M4.5 16.2V11.7C4.5 11.1477 4.94772 10.7 5.5 10.7H12.5C13.0523 10.7 13.5 11.1477 13.5 11.7V16.7M11.5 5.19995L5.5 5.19995C4.94772 5.19995 4.5 4.75224 4.5 4.19995L4.5 1.19995M16.4979 4.69784L13.5021 1.70206C13.1806 1.38057 12.7446 1.19995 12.2899 1.19995H2.71429C1.7675 1.19995 1 1.96745 1 2.91424V15.4857C1 16.4325 1.7675 17.2 2.71429 17.2H15.2857C16.2325 17.2 17 16.4325 17 15.4857V5.91002C17 5.45537 16.8194 5.01933 16.4979 4.69784Z" stroke="#FAFAFA" stroke-width="1.2" stroke-linecap="round"/>
</svg>
