<svg width="18" height="19" viewBox="0 0 18 19" fill="none" xmlns="http://www.w3.org/2000/svg">
<path fill-rule="evenodd" clip-rule="evenodd" d="M8.1284 11.1089L11.5043 16.5858C11.652 16.8258 11.8827 16.823 11.976 16.8101C12.0692 16.7972 12.2935 16.7399 12.3748 16.4676L16.5962 2.20998C16.6701 1.95797 16.5344 1.78627 16.4734 1.72534C16.4143 1.66441 16.2454 1.53425 16.0008 1.60349L1.733 5.78154C1.46252 5.86093 1.40344 6.08802 1.39052 6.18126C1.3776 6.27634 1.3739 6.51173 1.61299 6.6622L7.15266 10.1267L12.0471 5.18059C12.3157 4.90919 12.7542 4.90642 13.0265 5.17505C13.2988 5.44368 13.3007 5.88309 13.032 6.15449L8.1284 11.1089ZM11.9036 18.2002C11.2611 18.2002 10.6722 17.8734 10.3251 17.3121L6.74613 11.5048L0.878762 7.83535C0.246423 7.43933 -0.084055 6.73406 0.0184117 5.99279C0.119955 5.25152 0.628596 4.66257 1.34309 4.45302L15.6109 0.274967C16.2672 0.0829573 16.9706 0.264813 17.4544 0.746683C17.9381 1.23317 18.1181 1.94397 17.9224 2.60308L13.7009 16.8598C13.4895 17.5771 12.8988 18.0839 12.1593 18.1826C12.0726 18.1937 11.9886 18.2002 11.9036 18.2002Z" fill="#FAFAFA"/>
</svg>
