<svg width="366" height="199" viewBox="0 0 366 199" fill="none" xmlns="http://www.w3.org/2000/svg">
<path d="M126.672 26.6747H154V51C154 52.6569 152.657 54 151 54H126.672V26.6747Z" fill="#BBB2FF"/>
<path d="M1.0127 27.1747H126.66V53.5H3.5127C2.13199 53.5 1.0127 52.3807 1.0127 51V27.1747Z" fill="#1E1E1E"/>
<path d="M1.0127 27.1747H126.66V53.5H3.5127C2.13199 53.5 1.0127 52.3807 1.0127 51V27.1747Z" stroke="#D6D6EE"/>
<path d="M1.0127 3C1.0127 1.61929 2.13198 0.5 3.5127 0.5H126.66V26.8253H1.0127V3Z" fill="#1E1E1E"/>
<path d="M1.0127 3C1.0127 1.61929 2.13198 0.5 3.5127 0.5H126.66V26.8253H1.0127V3Z" stroke="#D6D6EE"/>
<path d="M127.172 0.5H151C152.381 0.5 153.5 1.61929 153.5 3V26.8253H127.172V0.5Z" fill="#D6D6EE" stroke="#D6D6EE"/>
<line x1="154" y1="26" x2="182" y2="26" stroke="#D6D6EE" stroke-width="2"/>
<line x1="181" y1="173" x2="181" y2="25" stroke="#D6D6EE" stroke-width="2"/>
<line x1="154" y1="172" x2="182" y2="172" stroke="#D6D6EE" stroke-width="2"/>
<line x1="182" y1="100" x2="212" y2="100" stroke="#D6D6EE" stroke-width="2"/>
<path d="M337.159 99.6747H364.488V124C364.488 125.657 363.144 127 361.488 127H337.159V99.6747Z" fill="#BBB2FF"/>
<path d="M211.5 100.175H337.148V126.5H214C212.619 126.5 211.5 125.381 211.5 124V100.175Z" fill="#1E1E1E"/>
<path d="M211.5 100.175H337.148V126.5H214C212.619 126.5 211.5 125.381 211.5 124V100.175Z" stroke="#D6D6EE"/>
<path d="M211.5 76C211.5 74.6193 212.619 73.5 214 73.5H337.148V99.8253H211.5V76Z" fill="#1E1E1E"/>
<path d="M211.5 76C211.5 74.6193 212.619 73.5 214 73.5H337.148V99.8253H211.5V76Z" stroke="#D6D6EE"/>
<path d="M337.659 73.5H361.488C362.868 73.5 363.988 74.6193 363.988 76V99.8253H337.659V73.5Z" fill="#D6D6EE" stroke="#D6D6EE"/>
<path d="M126.672 171.675H154V196C154 197.657 152.657 199 151 199H126.672V171.675Z" fill="#BBB2FF"/>
<path d="M1.0127 172.175H126.66V198.5H3.5127C2.13199 198.5 1.0127 197.381 1.0127 196V172.175Z" fill="#1E1E1E"/>
<path d="M1.0127 172.175H126.66V198.5H3.5127C2.13199 198.5 1.0127 197.381 1.0127 196V172.175Z" stroke="#D6D6EE"/>
<path d="M1.0127 148C1.0127 146.619 2.13198 145.5 3.5127 145.5H126.66V171.825H1.0127V148Z" fill="#1E1E1E"/>
<path d="M1.0127 148C1.0127 146.619 2.13198 145.5 3.5127 145.5H126.66V171.825H1.0127V148Z" stroke="#D6D6EE"/>
<path d="M127.172 145.5H151C152.381 145.5 153.5 146.619 153.5 148V171.825H127.172V145.5Z" fill="#D6D6EE" stroke="#D6D6EE"/>
</svg>
