<svg width="326" height="302" viewBox="0 0 326 302" fill="none" xmlns="http://www.w3.org/2000/svg">
<g clip-path="url(#clip0_95_1663)">
<g clip-path="url(#clip1_95_1663)">
<rect width="51" height="20" rx="5" fill="#BBB2FF"/>
<rect y="36" width="326" height="50" rx="5" fill="#D6D6EE"/>
<path d="M153.012 67.144C152.028 67.144 151.146 66.892 150.366 66.388C149.598 65.884 148.986 65.152 148.53 64.192C148.086 63.232 147.864 62.068 147.864 60.7C147.864 59.332 148.086 58.168 148.53 57.208C148.986 56.248 149.598 55.516 150.366 55.012C151.146 54.508 152.028 54.256 153.012 54.256C153.984 54.256 154.86 54.508 155.64 55.012C156.42 55.516 157.032 56.248 157.476 57.208C157.92 58.168 158.142 59.332 158.142 60.7C158.142 62.068 157.92 63.232 157.476 64.192C157.032 65.152 156.42 65.884 155.64 66.388C154.86 66.892 153.984 67.144 153.012 67.144ZM153.012 65.542C153.672 65.542 154.248 65.362 154.74 65.002C155.244 64.642 155.634 64.102 155.91 63.382C156.198 62.662 156.342 61.768 156.342 60.7C156.342 59.632 156.198 58.738 155.91 58.018C155.634 57.298 155.244 56.758 154.74 56.398C154.248 56.038 153.672 55.858 153.012 55.858C152.352 55.858 151.77 56.038 151.266 56.398C150.762 56.758 150.366 57.298 150.078 58.018C149.802 58.738 149.664 59.632 149.664 60.7C149.664 61.768 149.802 62.662 150.078 63.382C150.366 64.102 150.762 64.642 151.266 65.002C151.77 65.362 152.352 65.542 153.012 65.542ZM160.155 62.806V61.312H164.997V62.806H160.155ZM172.155 67.144C171.171 67.144 170.289 66.892 169.509 66.388C168.741 65.884 168.129 65.152 167.673 64.192C167.229 63.232 167.007 62.068 167.007 60.7C167.007 59.332 167.229 58.168 167.673 57.208C168.129 56.248 168.741 55.516 169.509 55.012C170.289 54.508 171.171 54.256 172.155 54.256C173.127 54.256 174.003 54.508 174.783 55.012C175.563 55.516 176.175 56.248 176.619 57.208C177.063 58.168 177.285 59.332 177.285 60.7C177.285 62.068 177.063 63.232 176.619 64.192C176.175 65.152 175.563 65.884 174.783 66.388C174.003 66.892 173.127 67.144 172.155 67.144ZM172.155 65.542C172.815 65.542 173.391 65.362 173.883 65.002C174.387 64.642 174.777 64.102 175.053 63.382C175.341 62.662 175.485 61.768 175.485 60.7C175.485 59.632 175.341 58.738 175.053 58.018C174.777 57.298 174.387 56.758 173.883 56.398C173.391 56.038 172.815 55.858 172.155 55.858C171.495 55.858 170.913 56.038 170.409 56.398C169.905 56.758 169.509 57.298 169.221 58.018C168.945 58.738 168.807 59.632 168.807 60.7C168.807 61.768 168.945 62.662 169.221 63.382C169.509 64.102 169.905 64.642 170.409 65.002C170.913 65.362 171.495 65.542 172.155 65.542Z" fill="#121212"/>
</g>
<rect y="108" width="51" height="20" rx="5" fill="#BBB2FF"/>
<rect y="144" width="155" height="50" rx="5" fill="#D6D6EE"/>
<path d="M67.488 175V163.12L68.262 163.966H64.644V162.4H69.27V175H67.488ZM72.1881 170.806V169.312H77.0301V170.806H72.1881ZM84.1878 175.144C83.2038 175.144 82.3218 174.892 81.5418 174.388C80.7738 173.884 80.1618 173.152 79.7058 172.192C79.2618 171.232 79.0398 170.068 79.0398 168.7C79.0398 167.332 79.2618 166.168 79.7058 165.208C80.1618 164.248 80.7738 163.516 81.5418 163.012C82.3218 162.508 83.2038 162.256 84.1878 162.256C85.1598 162.256 86.0358 162.508 86.8158 163.012C87.5958 163.516 88.2078 164.248 88.6518 165.208C89.0958 166.168 89.3178 167.332 89.3178 168.7C89.3178 170.068 89.0958 171.232 88.6518 172.192C88.2078 173.152 87.5958 173.884 86.8158 174.388C86.0358 174.892 85.1598 175.144 84.1878 175.144ZM84.1878 173.542C84.8478 173.542 85.4238 173.362 85.9158 173.002C86.4198 172.642 86.8098 172.102 87.0858 171.382C87.3738 170.662 87.5178 169.768 87.5178 168.7C87.5178 167.632 87.3738 166.738 87.0858 166.018C86.8098 165.298 86.4198 164.758 85.9158 164.398C85.4238 164.038 84.8478 163.858 84.1878 163.858C83.5278 163.858 82.9458 164.038 82.4418 164.398C81.9378 164.758 81.5418 165.298 81.2538 166.018C80.9778 166.738 80.8398 167.632 80.8398 168.7C80.8398 169.768 80.9778 170.662 81.2538 171.382C81.5418 172.102 81.9378 172.642 82.4418 173.002C82.9458 173.362 83.5278 173.542 84.1878 173.542Z" fill="#121212"/>
<rect x="171" y="144" width="155" height="50" rx="5" fill="#D6D6EE"/>
<path d="M241.512 175.144C240.528 175.144 239.646 174.892 238.866 174.388C238.098 173.884 237.486 173.152 237.03 172.192C236.586 171.232 236.364 170.068 236.364 168.7C236.364 167.332 236.586 166.168 237.03 165.208C237.486 164.248 238.098 163.516 238.866 163.012C239.646 162.508 240.528 162.256 241.512 162.256C242.484 162.256 243.36 162.508 244.14 163.012C244.92 163.516 245.532 164.248 245.976 165.208C246.42 166.168 246.642 167.332 246.642 168.7C246.642 170.068 246.42 171.232 245.976 172.192C245.532 173.152 244.92 173.884 244.14 174.388C243.36 174.892 242.484 175.144 241.512 175.144ZM241.512 173.542C242.172 173.542 242.748 173.362 243.24 173.002C243.744 172.642 244.134 172.102 244.41 171.382C244.698 170.662 244.842 169.768 244.842 168.7C244.842 167.632 244.698 166.738 244.41 166.018C244.134 165.298 243.744 164.758 243.24 164.398C242.748 164.038 242.172 163.858 241.512 163.858C240.852 163.858 240.27 164.038 239.766 164.398C239.262 164.758 238.866 165.298 238.578 166.018C238.302 166.738 238.164 167.632 238.164 168.7C238.164 169.768 238.302 170.662 238.578 171.382C238.866 172.102 239.262 172.642 239.766 173.002C240.27 173.362 240.852 173.542 241.512 173.542ZM248.655 170.806V169.312H253.497V170.806H248.655ZM257.191 175V163.12L257.965 163.966H254.347V162.4H258.973V175H257.191Z" fill="#121212"/>
<rect y="216" width="51" height="20" rx="5" fill="#BBB2FF"/>
<rect y="252" width="98" height="50" rx="5" fill="#D6D6EE"/>
<path d="M34.666 283V281.776L39.796 276.826C40.252 276.394 40.588 276.016 40.804 275.692C41.032 275.356 41.182 275.05 41.254 274.774C41.338 274.486 41.38 274.21 41.38 273.946C41.38 273.298 41.152 272.788 40.696 272.416C40.24 272.044 39.574 271.858 38.698 271.858C38.026 271.858 37.42 271.972 36.88 272.2C36.34 272.416 35.872 272.758 35.476 273.226L34.252 272.164C34.732 271.552 35.374 271.084 36.178 270.76C36.994 270.424 37.888 270.256 38.86 270.256C39.736 270.256 40.498 270.4 41.146 270.688C41.794 270.964 42.292 271.366 42.64 271.894C43 272.422 43.18 273.046 43.18 273.766C43.18 274.174 43.126 274.576 43.018 274.972C42.91 275.368 42.706 275.788 42.406 276.232C42.106 276.676 41.674 277.174 41.11 277.726L36.538 282.136L36.106 281.434H43.72V283H34.666ZM45.2389 278.806V277.312H50.0809V278.806H45.2389ZM57.2386 283.144C56.2546 283.144 55.3726 282.892 54.5926 282.388C53.8246 281.884 53.2126 281.152 52.7566 280.192C52.3126 279.232 52.0906 278.068 52.0906 276.7C52.0906 275.332 52.3126 274.168 52.7566 273.208C53.2126 272.248 53.8246 271.516 54.5926 271.012C55.3726 270.508 56.2546 270.256 57.2386 270.256C58.2106 270.256 59.0866 270.508 59.8666 271.012C60.6466 271.516 61.2586 272.248 61.7026 273.208C62.1466 274.168 62.3686 275.332 62.3686 276.7C62.3686 278.068 62.1466 279.232 61.7026 280.192C61.2586 281.152 60.6466 281.884 59.8666 282.388C59.0866 282.892 58.2106 283.144 57.2386 283.144ZM57.2386 281.542C57.8986 281.542 58.4746 281.362 58.9666 281.002C59.4706 280.642 59.8606 280.102 60.1366 279.382C60.4246 278.662 60.5686 277.768 60.5686 276.7C60.5686 275.632 60.4246 274.738 60.1366 274.018C59.8606 273.298 59.4706 272.758 58.9666 272.398C58.4746 272.038 57.8986 271.858 57.2386 271.858C56.5786 271.858 55.9966 272.038 55.4926 272.398C54.9886 272.758 54.5926 273.298 54.3046 274.018C54.0286 274.738 53.8906 275.632 53.8906 276.7C53.8906 277.768 54.0286 278.662 54.3046 279.382C54.5926 280.102 54.9886 280.642 55.4926 281.002C55.9966 281.362 56.5786 281.542 57.2386 281.542Z" fill="#121212"/>
<rect x="114" y="252" width="98" height="50" rx="5" fill="#D6D6EE"/>
<path d="M155.988 283V271.12L156.762 271.966H153.144V270.4H157.77V283H155.988ZM160.688 278.806V277.312H165.53V278.806H160.688ZM169.224 283V271.12L169.998 271.966H166.38V270.4H171.006V283H169.224Z" fill="#121212"/>
<rect x="228" y="252" width="98" height="50" rx="5" fill="#D6D6EE"/>
<path d="M267.012 283.144C266.028 283.144 265.146 282.892 264.366 282.388C263.598 281.884 262.986 281.152 262.53 280.192C262.086 279.232 261.864 278.068 261.864 276.7C261.864 275.332 262.086 274.168 262.53 273.208C262.986 272.248 263.598 271.516 264.366 271.012C265.146 270.508 266.028 270.256 267.012 270.256C267.984 270.256 268.86 270.508 269.64 271.012C270.42 271.516 271.032 272.248 271.476 273.208C271.92 274.168 272.142 275.332 272.142 276.7C272.142 278.068 271.92 279.232 271.476 280.192C271.032 281.152 270.42 281.884 269.64 282.388C268.86 282.892 267.984 283.144 267.012 283.144ZM267.012 281.542C267.672 281.542 268.248 281.362 268.74 281.002C269.244 280.642 269.634 280.102 269.91 279.382C270.198 278.662 270.342 277.768 270.342 276.7C270.342 275.632 270.198 274.738 269.91 274.018C269.634 273.298 269.244 272.758 268.74 272.398C268.248 272.038 267.672 271.858 267.012 271.858C266.352 271.858 265.77 272.038 265.266 272.398C264.762 272.758 264.366 273.298 264.078 274.018C263.802 274.738 263.664 275.632 263.664 276.7C263.664 277.768 263.802 278.662 264.078 279.382C264.366 280.102 264.762 280.642 265.266 281.002C265.77 281.362 266.352 281.542 267.012 281.542ZM274.155 278.806V277.312H278.997V278.806H274.155ZM286.155 283.144C285.171 283.144 284.289 282.892 283.509 282.388C282.741 281.884 282.129 281.152 281.673 280.192C281.229 279.232 281.007 278.068 281.007 276.7C281.007 275.332 281.229 274.168 281.673 273.208C282.129 272.248 282.741 271.516 283.509 271.012C284.289 270.508 285.171 270.256 286.155 270.256C287.127 270.256 288.003 270.508 288.783 271.012C289.563 271.516 290.175 272.248 290.619 273.208C291.063 274.168 291.285 275.332 291.285 276.7C291.285 278.068 291.063 279.232 290.619 280.192C290.175 281.152 289.563 281.884 288.783 282.388C288.003 282.892 287.127 283.144 286.155 283.144ZM286.155 281.542C286.815 281.542 287.391 281.362 287.883 281.002C288.387 280.642 288.777 280.102 289.053 279.382C289.341 278.662 289.485 277.768 289.485 276.7C289.485 275.632 289.341 274.738 289.053 274.018C288.777 273.298 288.387 272.758 287.883 272.398C287.391 272.038 286.815 271.858 286.155 271.858C285.495 271.858 284.913 272.038 284.409 272.398C283.905 272.758 283.509 273.298 283.221 274.018C282.945 274.738 282.807 275.632 282.807 276.7C282.807 277.768 282.945 278.662 283.221 279.382C283.509 280.102 283.905 280.642 284.409 281.002C284.913 281.362 285.495 281.542 286.155 281.542Z" fill="#121212"/>
</g>
<defs>
<clipPath id="clip0_95_1663">
<rect width="326" height="302" fill="white"/>
</clipPath>
<clipPath id="clip1_95_1663">
<rect width="326" height="86" fill="white"/>
</clipPath>
</defs>
</svg>
